<svg width="296" height="75" viewBox="0 0 296 75" fill="none" xmlns="http://www.w3.org/2000/svg">
<g clip-path="url(#clip0)">
<rect width="296" height="75" fill="white"/>
<rect x="4.48592" y="4.48592" width="287.028" height="66.0282" fill="white" stroke="black" stroke-width="3.02817"/>
<path d="M13.4345 52.1502V24.1633H23.2377C26.6335 24.1633 29.2092 24.8169 30.9648 26.124C32.7204 27.4182 33.5982 29.3212 33.5982 31.8328C33.5982 33.204 33.2458 34.4149 32.541 35.4657C31.8362 36.5037 30.8559 37.2662 29.6001 37.7531C31.0353 38.1119 32.163 38.836 32.9831 39.9252C33.816 41.0144 34.2325 42.3471 34.2325 43.9233C34.2325 46.6144 33.3739 48.6519 31.6568 50.0358C29.9396 51.4198 27.4921 52.1246 24.3141 52.1502H13.4345ZM19.2011 39.9636V47.5178H24.1411C25.4994 47.5178 26.5566 47.1974 27.3127 46.5567C28.0815 45.9032 28.466 45.0061 28.466 43.8657C28.466 41.3027 27.1397 40.0021 24.4871 39.9636H19.2011ZM19.2011 35.8886H23.4683C26.3772 35.8374 27.8317 34.6776 27.8317 32.4095C27.8317 31.1408 27.46 30.231 26.7168 29.68C25.9864 29.1161 24.8267 28.8342 23.2377 28.8342H19.2011V35.8886ZM55.4149 40.0213H44.3432V47.5178H57.3371V52.1502H38.5766V24.1633H57.2986V28.8342H44.3432V35.5042H55.4149V40.0213ZM82.1716 28.8342H73.5987V52.1502H67.8322V28.8342H59.3746V24.1633H82.1716V28.8342ZM106.852 28.8342H98.2795V52.1502H92.5129V28.8342H84.0553V24.1633H106.852V28.8342ZM126.997 40.0213H115.925V47.5178H128.919V52.1502H110.159V24.1633H128.881V28.8342H115.925V35.5042H126.997V40.0213ZM142.663 41.905H138.069V52.1502H132.302V24.1633H142.701C146.007 24.1633 148.557 24.9002 150.351 26.3738C152.145 27.8475 153.042 29.9299 153.042 32.6209C153.042 34.5303 152.626 36.1257 151.793 37.4071C150.973 38.6758 149.723 39.6881 148.045 40.4442L154.1 51.8811V52.1502H147.91L142.663 41.905ZM138.069 37.2341H142.72C144.168 37.2341 145.29 36.8689 146.084 36.1385C146.879 35.3953 147.276 34.3765 147.276 33.0822C147.276 31.7623 146.898 30.7244 146.142 29.9683C145.398 29.2123 144.252 28.8342 142.701 28.8342H138.069V37.2341ZM167.247 52.1502V24.1633H175.859C178.319 24.1633 180.517 24.7208 182.452 25.8356C184.399 26.9377 185.918 28.5139 187.007 30.5642C188.096 32.6017 188.641 34.9211 188.641 37.5225V38.8103C188.641 41.4117 188.103 43.7247 187.026 45.7494C185.963 47.7741 184.457 49.3439 182.509 50.4587C180.561 51.5736 178.364 52.1374 175.916 52.1502H167.247ZM173.014 28.8342V47.5178H175.801C178.056 47.5178 179.78 46.781 180.972 45.3073C182.163 43.8336 182.772 41.7256 182.798 38.9833V37.5032C182.798 34.6584 182.208 32.5056 181.029 31.0447C179.85 29.5711 178.127 28.8342 175.859 28.8342H173.014ZM209.689 40.0213H198.617V47.5178H211.611V52.1502H192.851V24.1633H211.573V28.8342H198.617V35.5042H209.689V40.0213ZM230.794 46.3837H220.684L218.762 52.1502H212.63L223.048 24.1633H228.392L238.868 52.1502H232.736L230.794 46.3837ZM222.241 41.7128H229.237L225.72 31.2369L222.241 41.7128ZM247.248 47.5178H259.492V52.1502H241.482V24.1633H247.248V47.5178ZM277.33 44.8075C277.33 43.7183 276.946 42.8853 276.177 42.3087C275.408 41.7192 274.024 41.1041 272.025 40.4634C270.026 39.8099 268.443 39.1691 267.277 38.5412C264.099 36.8241 262.51 34.5111 262.51 31.6022C262.51 30.09 262.933 28.7445 263.779 27.5656C264.638 26.3738 265.861 25.4448 267.45 24.7784C269.052 24.1121 270.846 23.7789 272.832 23.7789C274.831 23.7789 276.613 24.1441 278.176 24.8745C279.739 25.5922 280.95 26.6109 281.809 27.9308C282.68 29.2507 283.116 30.75 283.116 32.4287H277.35C277.35 31.1472 276.946 30.1541 276.139 29.4493C275.331 28.7317 274.197 28.3729 272.736 28.3729C271.327 28.3729 270.231 28.674 269.449 29.2763C268.668 29.8658 268.277 30.6475 268.277 31.6214C268.277 32.5312 268.732 33.2937 269.642 33.9088C270.564 34.5239 271.916 35.1005 273.697 35.6387C276.978 36.6255 279.368 37.8492 280.867 39.3101C282.366 40.7709 283.116 42.5906 283.116 44.7691C283.116 47.191 282.2 49.094 280.367 50.4779C278.535 51.8491 276.068 52.5347 272.967 52.5347C270.814 52.5347 268.853 52.1438 267.085 51.3621C265.317 50.5676 263.965 49.4848 263.029 48.1137C262.107 46.7425 261.645 45.1535 261.645 43.3467H267.431C267.431 46.435 269.276 47.9791 272.967 47.9791C274.338 47.9791 275.408 47.7036 276.177 47.1526C276.946 46.5887 277.33 45.8071 277.33 44.8075Z" fill="black"/>
</g>
<defs>
<clipPath id="clip0">
<rect width="296" height="75" fill="white"/>
</clipPath>
</defs>
</svg>
